<?xml version="1.0" encoding="utf-8"?>
<!-- Generator: Adobe Illustrator 25.0.1, SVG Export Plug-In . SVG Version: 6.00 Build 0)  -->
<svg version="1.1" id="Layer_1" xmlns="http://www.w3.org/2000/svg" xmlns:xlink="http://www.w3.org/1999/xlink" x="0px" y="0px"
	 viewBox="0 0 24 24" style="enable-background:new 0 0 24 24;" xml:space="preserve">
<g>
	<path d="M12,20.95c-2.66,0-3.65-1.93-3.65-3.15h1.3c0,0.02,0.06,1.85,2.35,1.85s2.35-1.83,2.35-1.85h1.3
		C15.65,19.02,14.66,20.95,12,20.95z"/>
</g>
<g>
	<path d="M18.31,16.62H5.69c-0.63,0-1.18-0.3-1.54-0.86c-0.43-0.65-0.38-1.53,0.12-2.13l1.31-1.54l0.01-2.28c0-0.02,0-0.04,0-0.06
		V8.8c0-3.56,2.88-6.47,6.41-6.48c1.72,0.01,3.33,0.69,4.54,1.92c1.21,1.22,1.87,2.84,1.87,4.56v0.96c0,0.01,0,0.02,0,0.03l0.01,2.3
		l1.31,1.54c0.51,0.62,0.56,1.47,0.12,2.14C19.5,16.32,18.95,16.62,18.31,16.62z M6.89,9.64c0,0.02,0,0.04,0,0.06l-0.01,2.63
		c0,0.15-0.06,0.3-0.16,0.42l-1.46,1.72c-0.13,0.16-0.15,0.4-0.03,0.58c0.12,0.19,0.26,0.27,0.45,0.27h12.63
		c0.19,0,0.33-0.08,0.45-0.27c0.12-0.18,0.11-0.42-0.03-0.59l-1.46-1.71c-0.1-0.12-0.16-0.27-0.16-0.42l-0.01-2.63
		c0-0.01,0-0.03,0-0.04V8.8c0-1.37-0.53-2.67-1.5-3.64C14.65,4.17,13.36,3.63,12,3.62C9.18,3.63,6.89,5.96,6.89,8.8V9.64z"/>
</g>
</svg>
