<?xml version="1.0" encoding="utf-8"?>
<!-- Generator: Adobe Illustrator 25.0.1, SVG Export Plug-In . SVG Version: 6.00 Build 0)  -->
<svg version="1.1" id="show_alarm_on" xmlns="http://www.w3.org/2000/svg" xmlns:xlink="http://www.w3.org/1999/xlink" x="0px"
	 y="0px" viewBox="0 0 24 24" style="enable-background:new 0 0 24 24;" xml:space="preserve">
<g>
	<path d="M12.1,20.12c-2.28,0-3.13-1.66-3.13-2.7h1.11c0,0.02,0.05,1.59,2.01,1.59s2.01-1.57,2.01-1.59h1.12
		C15.23,18.47,14.38,20.12,12.1,20.12z"/>
</g>
<g>
	<path d="M17.52,16.27H6.69c-0.54,0-1.01-0.26-1.32-0.73c-0.37-0.56-0.33-1.31,0.1-1.82l1.13-1.32l0.01-1.95c0-0.02,0-0.03,0-0.05
		V9.56c0-3.05,2.46-5.54,5.49-5.55c1.47,0.01,2.85,0.59,3.9,1.65c1.03,1.05,1.6,2.44,1.6,3.91v0.83c0,0.01,0,0.02,0,0.03l0.01,1.97
		l1.12,1.32c0.44,0.53,0.48,1.26,0.11,1.83C18.53,16,18.06,16.27,17.52,16.27z M7.72,10.28c0,0.02,0,0.04,0,0.05l-0.01,2.26
		c0,0.13-0.05,0.26-0.13,0.36l-1.26,1.47c-0.11,0.14-0.13,0.34-0.03,0.49c0.11,0.16,0.23,0.23,0.39,0.23h10.83
		c0.16,0,0.29-0.07,0.39-0.23c0.1-0.16,0.09-0.36-0.03-0.5l-1.25-1.47c-0.09-0.1-0.13-0.23-0.13-0.36l-0.01-2.26
		c0-0.01,0-0.02,0-0.03V9.56c0-1.17-0.46-2.28-1.28-3.12c-0.83-0.84-1.93-1.31-3.1-1.31c-2.41,0.01-4.38,2-4.38,4.44V10.28z"/>
</g>
</svg>
